<mxfile host="app.diagrams.net" agent="Mozilla/5.0 (Windows NT 10.0; Win64; x64) AppleWebKit/537.36 (KHTML, like Gecko) Chrome/137.0.0.0 Safari/537.36 Edg/137.0.0.0" version="27.1.5">
  <diagram name="Page-1" id="KAUJIaK7NsmXlXG6KWXf">
    <mxGraphModel dx="2814" dy="1292" grid="1" gridSize="10" guides="1" tooltips="1" connect="1" arrows="1" fold="1" page="1" pageScale="1" pageWidth="850" pageHeight="1100" math="0" shadow="0">
      <root>
        <mxCell id="0" />
        <mxCell id="1" parent="0" />
        <mxCell id="0Yc7JymVGo0VNF-Y9l-0-92" style="edgeStyle=orthogonalEdgeStyle;rounded=0;orthogonalLoop=1;jettySize=auto;html=1;exitX=1;exitY=0.5;exitDx=0;exitDy=0;entryX=0.5;entryY=0;entryDx=0;entryDy=0;" edge="1" parent="1" source="0Yc7JymVGo0VNF-Y9l-0-1" target="0Yc7JymVGo0VNF-Y9l-0-67">
          <mxGeometry relative="1" as="geometry" />
        </mxCell>
        <mxCell id="0Yc7JymVGo0VNF-Y9l-0-1" value="MainApp" style="swimlane;fontStyle=1;align=center;verticalAlign=top;childLayout=stackLayout;horizontal=1;startSize=47.2;horizontalStack=0;resizeParent=1;resizeParentMax=0;resizeLast=0;collapsible=0;marginBottom=0;" vertex="1" parent="1">
          <mxGeometry x="404" y="20" width="198" height="102.2" as="geometry" />
        </mxCell>
        <mxCell id="0Yc7JymVGo0VNF-Y9l-0-2" style="line;strokeWidth=1;fillColor=none;align=left;verticalAlign=middle;spacingTop=-1;spacingLeft=3;spacingRight=3;rotatable=0;labelPosition=right;points=[];portConstraint=eastwest;strokeColor=inherit;" vertex="1" parent="0Yc7JymVGo0VNF-Y9l-0-1">
          <mxGeometry y="47.2" width="198" height="8" as="geometry" />
        </mxCell>
        <mxCell id="0Yc7JymVGo0VNF-Y9l-0-3" value="+main(String[] args)" style="text;strokeColor=none;fillColor=none;align=left;verticalAlign=top;spacingLeft=4;spacingRight=4;overflow=hidden;rotatable=0;points=[[0,0.5],[1,0.5]];portConstraint=eastwest;" vertex="1" parent="0Yc7JymVGo0VNF-Y9l-0-1">
          <mxGeometry y="55.2" width="198" height="47" as="geometry" />
        </mxCell>
        <mxCell id="0Yc7JymVGo0VNF-Y9l-0-4" value="FlightController" style="swimlane;fontStyle=1;align=center;verticalAlign=top;childLayout=stackLayout;horizontal=1;startSize=34.666666666666664;horizontalStack=0;resizeParent=1;resizeParentMax=0;resizeLast=0;collapsible=0;marginBottom=0;" vertex="1" parent="1">
          <mxGeometry x="780" y="399.14" width="362" height="217.66666666666666" as="geometry" />
        </mxCell>
        <mxCell id="0Yc7JymVGo0VNF-Y9l-0-5" value="-List&lt;Flight&gt; flights" style="text;strokeColor=none;fillColor=none;align=left;verticalAlign=top;spacingLeft=4;spacingRight=4;overflow=hidden;rotatable=0;points=[[0,0.5],[1,0.5]];portConstraint=eastwest;" vertex="1" parent="0Yc7JymVGo0VNF-Y9l-0-4">
          <mxGeometry y="34.666666666666664" width="362" height="35" as="geometry" />
        </mxCell>
        <mxCell id="0Yc7JymVGo0VNF-Y9l-0-6" style="line;strokeWidth=1;fillColor=none;align=left;verticalAlign=middle;spacingTop=-1;spacingLeft=3;spacingRight=3;rotatable=0;labelPosition=right;points=[];portConstraint=eastwest;strokeColor=inherit;" vertex="1" parent="0Yc7JymVGo0VNF-Y9l-0-4">
          <mxGeometry y="69.66666666666666" width="362" height="8" as="geometry" />
        </mxCell>
        <mxCell id="0Yc7JymVGo0VNF-Y9l-0-7" value="+addFlight(Flight flight)" style="text;strokeColor=none;fillColor=none;align=left;verticalAlign=top;spacingLeft=4;spacingRight=4;overflow=hidden;rotatable=0;points=[[0,0.5],[1,0.5]];portConstraint=eastwest;" vertex="1" parent="0Yc7JymVGo0VNF-Y9l-0-4">
          <mxGeometry y="77.66666666666666" width="362" height="35" as="geometry" />
        </mxCell>
        <mxCell id="0Yc7JymVGo0VNF-Y9l-0-8" value="+getFlights() : : List&lt;Flight&gt;" style="text;strokeColor=none;fillColor=none;align=left;verticalAlign=top;spacingLeft=4;spacingRight=4;overflow=hidden;rotatable=0;points=[[0,0.5],[1,0.5]];portConstraint=eastwest;" vertex="1" parent="0Yc7JymVGo0VNF-Y9l-0-4">
          <mxGeometry y="112.66666666666666" width="362" height="35" as="geometry" />
        </mxCell>
        <mxCell id="0Yc7JymVGo0VNF-Y9l-0-9" value="+sortedByFlightNumber() : : List&lt;Flight&gt;" style="text;strokeColor=none;fillColor=none;align=left;verticalAlign=top;spacingLeft=4;spacingRight=4;overflow=hidden;rotatable=0;points=[[0,0.5],[1,0.5]];portConstraint=eastwest;" vertex="1" parent="0Yc7JymVGo0VNF-Y9l-0-4">
          <mxGeometry y="147.66666666666666" width="362" height="35" as="geometry" />
        </mxCell>
        <mxCell id="0Yc7JymVGo0VNF-Y9l-0-10" value="+sortedByOthers(String sortByAttribute, boolean ascending) : : List&lt;Flight&gt;" style="text;strokeColor=none;fillColor=none;align=left;verticalAlign=top;spacingLeft=4;spacingRight=4;overflow=hidden;rotatable=0;points=[[0,0.5],[1,0.5]];portConstraint=eastwest;" vertex="1" parent="0Yc7JymVGo0VNF-Y9l-0-4">
          <mxGeometry y="182.66666666666666" width="362" height="35" as="geometry" />
        </mxCell>
        <mxCell id="0Yc7JymVGo0VNF-Y9l-0-11" value="Flight" style="swimlane;fontStyle=1;align=center;verticalAlign=top;childLayout=stackLayout;horizontal=1;startSize=25.88235294117647;horizontalStack=0;resizeParent=1;resizeParentMax=0;resizeLast=0;collapsible=0;marginBottom=0;" vertex="1" parent="1">
          <mxGeometry x="1300" y="20" width="260" height="891.8823529411765" as="geometry" />
        </mxCell>
        <mxCell id="0Yc7JymVGo0VNF-Y9l-0-12" value="-String airlineName" style="text;strokeColor=none;fillColor=none;align=left;verticalAlign=top;spacingLeft=4;spacingRight=4;overflow=hidden;rotatable=0;points=[[0,0.5],[1,0.5]];portConstraint=eastwest;" vertex="1" parent="0Yc7JymVGo0VNF-Y9l-0-11">
          <mxGeometry y="25.88235294117647" width="260" height="26" as="geometry" />
        </mxCell>
        <mxCell id="0Yc7JymVGo0VNF-Y9l-0-13" value="-String flightNumber" style="text;strokeColor=none;fillColor=none;align=left;verticalAlign=top;spacingLeft=4;spacingRight=4;overflow=hidden;rotatable=0;points=[[0,0.5],[1,0.5]];portConstraint=eastwest;" vertex="1" parent="0Yc7JymVGo0VNF-Y9l-0-11">
          <mxGeometry y="51.88235294117647" width="260" height="26" as="geometry" />
        </mxCell>
        <mxCell id="0Yc7JymVGo0VNF-Y9l-0-14" value="-String flightOrigin" style="text;strokeColor=none;fillColor=none;align=left;verticalAlign=top;spacingLeft=4;spacingRight=4;overflow=hidden;rotatable=0;points=[[0,0.5],[1,0.5]];portConstraint=eastwest;" vertex="1" parent="0Yc7JymVGo0VNF-Y9l-0-11">
          <mxGeometry y="77.88235294117646" width="260" height="26" as="geometry" />
        </mxCell>
        <mxCell id="0Yc7JymVGo0VNF-Y9l-0-15" value="-String flightDestination" style="text;strokeColor=none;fillColor=none;align=left;verticalAlign=top;spacingLeft=4;spacingRight=4;overflow=hidden;rotatable=0;points=[[0,0.5],[1,0.5]];portConstraint=eastwest;" vertex="1" parent="0Yc7JymVGo0VNF-Y9l-0-11">
          <mxGeometry y="103.88235294117646" width="260" height="26" as="geometry" />
        </mxCell>
        <mxCell id="0Yc7JymVGo0VNF-Y9l-0-16" value="-double airfare" style="text;strokeColor=none;fillColor=none;align=left;verticalAlign=top;spacingLeft=4;spacingRight=4;overflow=hidden;rotatable=0;points=[[0,0.5],[1,0.5]];portConstraint=eastwest;" vertex="1" parent="0Yc7JymVGo0VNF-Y9l-0-11">
          <mxGeometry y="129.88235294117646" width="260" height="26" as="geometry" />
        </mxCell>
        <mxCell id="0Yc7JymVGo0VNF-Y9l-0-17" value="-LocalDateTime departureTime" style="text;strokeColor=none;fillColor=none;align=left;verticalAlign=top;spacingLeft=4;spacingRight=4;overflow=hidden;rotatable=0;points=[[0,0.5],[1,0.5]];portConstraint=eastwest;" vertex="1" parent="0Yc7JymVGo0VNF-Y9l-0-11">
          <mxGeometry y="155.88235294117646" width="260" height="26" as="geometry" />
        </mxCell>
        <mxCell id="0Yc7JymVGo0VNF-Y9l-0-18" value="-LocalDateTime arrivalTime" style="text;strokeColor=none;fillColor=none;align=left;verticalAlign=top;spacingLeft=4;spacingRight=4;overflow=hidden;rotatable=0;points=[[0,0.5],[1,0.5]];portConstraint=eastwest;" vertex="1" parent="0Yc7JymVGo0VNF-Y9l-0-11">
          <mxGeometry y="181.88235294117646" width="260" height="26" as="geometry" />
        </mxCell>
        <mxCell id="0Yc7JymVGo0VNF-Y9l-0-19" value="-String duration" style="text;strokeColor=none;fillColor=none;align=left;verticalAlign=top;spacingLeft=4;spacingRight=4;overflow=hidden;rotatable=0;points=[[0,0.5],[1,0.5]];portConstraint=eastwest;" vertex="1" parent="0Yc7JymVGo0VNF-Y9l-0-11">
          <mxGeometry y="207.88235294117646" width="260" height="26" as="geometry" />
        </mxCell>
        <mxCell id="0Yc7JymVGo0VNF-Y9l-0-20" value="-int availableSeat" style="text;strokeColor=none;fillColor=none;align=left;verticalAlign=top;spacingLeft=4;spacingRight=4;overflow=hidden;rotatable=0;points=[[0,0.5],[1,0.5]];portConstraint=eastwest;" vertex="1" parent="0Yc7JymVGo0VNF-Y9l-0-11">
          <mxGeometry y="233.88235294117646" width="260" height="26" as="geometry" />
        </mxCell>
        <mxCell id="0Yc7JymVGo0VNF-Y9l-0-21" value="-double distance" style="text;strokeColor=none;fillColor=none;align=left;verticalAlign=top;spacingLeft=4;spacingRight=4;overflow=hidden;rotatable=0;points=[[0,0.5],[1,0.5]];portConstraint=eastwest;" vertex="1" parent="0Yc7JymVGo0VNF-Y9l-0-11">
          <mxGeometry y="259.88235294117646" width="260" height="26" as="geometry" />
        </mxCell>
        <mxCell id="0Yc7JymVGo0VNF-Y9l-0-22" style="line;strokeWidth=1;fillColor=none;align=left;verticalAlign=middle;spacingTop=-1;spacingLeft=3;spacingRight=3;rotatable=0;labelPosition=right;points=[];portConstraint=eastwest;strokeColor=inherit;" vertex="1" parent="0Yc7JymVGo0VNF-Y9l-0-11">
          <mxGeometry y="285.88235294117646" width="260" height="8" as="geometry" />
        </mxCell>
        <mxCell id="0Yc7JymVGo0VNF-Y9l-0-23" value="+Flight(String, String, String, String, double, LocalDateTime, LocalDateTime, int, double)" style="text;strokeColor=none;fillColor=none;align=left;verticalAlign=top;spacingLeft=4;spacingRight=4;overflow=hidden;rotatable=0;points=[[0,0.5],[1,0.5]];portConstraint=eastwest;" vertex="1" parent="0Yc7JymVGo0VNF-Y9l-0-11">
          <mxGeometry y="293.88235294117646" width="260" height="26" as="geometry" />
        </mxCell>
        <mxCell id="0Yc7JymVGo0VNF-Y9l-0-24" value="+getAirlineName() : : String" style="text;strokeColor=none;fillColor=none;align=left;verticalAlign=top;spacingLeft=4;spacingRight=4;overflow=hidden;rotatable=0;points=[[0,0.5],[1,0.5]];portConstraint=eastwest;" vertex="1" parent="0Yc7JymVGo0VNF-Y9l-0-11">
          <mxGeometry y="319.88235294117646" width="260" height="26" as="geometry" />
        </mxCell>
        <mxCell id="0Yc7JymVGo0VNF-Y9l-0-25" value="+getFlightNumber() : : String" style="text;strokeColor=none;fillColor=none;align=left;verticalAlign=top;spacingLeft=4;spacingRight=4;overflow=hidden;rotatable=0;points=[[0,0.5],[1,0.5]];portConstraint=eastwest;" vertex="1" parent="0Yc7JymVGo0VNF-Y9l-0-11">
          <mxGeometry y="345.88235294117646" width="260" height="26" as="geometry" />
        </mxCell>
        <mxCell id="0Yc7JymVGo0VNF-Y9l-0-26" value="+getFlightOrigin() : : String" style="text;strokeColor=none;fillColor=none;align=left;verticalAlign=top;spacingLeft=4;spacingRight=4;overflow=hidden;rotatable=0;points=[[0,0.5],[1,0.5]];portConstraint=eastwest;" vertex="1" parent="0Yc7JymVGo0VNF-Y9l-0-11">
          <mxGeometry y="371.88235294117646" width="260" height="26" as="geometry" />
        </mxCell>
        <mxCell id="0Yc7JymVGo0VNF-Y9l-0-27" value="+getFlightDestination() : : String" style="text;strokeColor=none;fillColor=none;align=left;verticalAlign=top;spacingLeft=4;spacingRight=4;overflow=hidden;rotatable=0;points=[[0,0.5],[1,0.5]];portConstraint=eastwest;" vertex="1" parent="0Yc7JymVGo0VNF-Y9l-0-11">
          <mxGeometry y="397.88235294117646" width="260" height="26" as="geometry" />
        </mxCell>
        <mxCell id="0Yc7JymVGo0VNF-Y9l-0-28" value="+getAirfare() : : double" style="text;strokeColor=none;fillColor=none;align=left;verticalAlign=top;spacingLeft=4;spacingRight=4;overflow=hidden;rotatable=0;points=[[0,0.5],[1,0.5]];portConstraint=eastwest;" vertex="1" parent="0Yc7JymVGo0VNF-Y9l-0-11">
          <mxGeometry y="423.88235294117646" width="260" height="26" as="geometry" />
        </mxCell>
        <mxCell id="0Yc7JymVGo0VNF-Y9l-0-29" value="+getDepartureTime() : : LocalDateTime" style="text;strokeColor=none;fillColor=none;align=left;verticalAlign=top;spacingLeft=4;spacingRight=4;overflow=hidden;rotatable=0;points=[[0,0.5],[1,0.5]];portConstraint=eastwest;" vertex="1" parent="0Yc7JymVGo0VNF-Y9l-0-11">
          <mxGeometry y="449.88235294117646" width="260" height="26" as="geometry" />
        </mxCell>
        <mxCell id="0Yc7JymVGo0VNF-Y9l-0-30" value="+getArrivalTime() : : LocalDateTime" style="text;strokeColor=none;fillColor=none;align=left;verticalAlign=top;spacingLeft=4;spacingRight=4;overflow=hidden;rotatable=0;points=[[0,0.5],[1,0.5]];portConstraint=eastwest;" vertex="1" parent="0Yc7JymVGo0VNF-Y9l-0-11">
          <mxGeometry y="475.88235294117646" width="260" height="26" as="geometry" />
        </mxCell>
        <mxCell id="0Yc7JymVGo0VNF-Y9l-0-31" value="+getDuration() : : String" style="text;strokeColor=none;fillColor=none;align=left;verticalAlign=top;spacingLeft=4;spacingRight=4;overflow=hidden;rotatable=0;points=[[0,0.5],[1,0.5]];portConstraint=eastwest;" vertex="1" parent="0Yc7JymVGo0VNF-Y9l-0-11">
          <mxGeometry y="501.88235294117646" width="260" height="26" as="geometry" />
        </mxCell>
        <mxCell id="0Yc7JymVGo0VNF-Y9l-0-32" value="+getAvailableSeat() : : int" style="text;strokeColor=none;fillColor=none;align=left;verticalAlign=top;spacingLeft=4;spacingRight=4;overflow=hidden;rotatable=0;points=[[0,0.5],[1,0.5]];portConstraint=eastwest;" vertex="1" parent="0Yc7JymVGo0VNF-Y9l-0-11">
          <mxGeometry y="527.8823529411765" width="260" height="26" as="geometry" />
        </mxCell>
        <mxCell id="0Yc7JymVGo0VNF-Y9l-0-33" value="+getDistance() : : double" style="text;strokeColor=none;fillColor=none;align=left;verticalAlign=top;spacingLeft=4;spacingRight=4;overflow=hidden;rotatable=0;points=[[0,0.5],[1,0.5]];portConstraint=eastwest;" vertex="1" parent="0Yc7JymVGo0VNF-Y9l-0-11">
          <mxGeometry y="553.8823529411765" width="260" height="26" as="geometry" />
        </mxCell>
        <mxCell id="0Yc7JymVGo0VNF-Y9l-0-34" value="-calDuration(LocalDateTime, LocalDateTime) : : String" style="text;strokeColor=none;fillColor=none;align=left;verticalAlign=top;spacingLeft=4;spacingRight=4;overflow=hidden;rotatable=0;points=[[0,0.5],[1,0.5]];portConstraint=eastwest;" vertex="1" parent="0Yc7JymVGo0VNF-Y9l-0-11">
          <mxGeometry y="579.8823529411765" width="260" height="26" as="geometry" />
        </mxCell>
        <mxCell id="0Yc7JymVGo0VNF-Y9l-0-35" value="+setAirlineName(String)" style="text;strokeColor=none;fillColor=none;align=left;verticalAlign=top;spacingLeft=4;spacingRight=4;overflow=hidden;rotatable=0;points=[[0,0.5],[1,0.5]];portConstraint=eastwest;" vertex="1" parent="0Yc7JymVGo0VNF-Y9l-0-11">
          <mxGeometry y="605.8823529411765" width="260" height="26" as="geometry" />
        </mxCell>
        <mxCell id="0Yc7JymVGo0VNF-Y9l-0-36" value="+setFlightNumber(String)" style="text;strokeColor=none;fillColor=none;align=left;verticalAlign=top;spacingLeft=4;spacingRight=4;overflow=hidden;rotatable=0;points=[[0,0.5],[1,0.5]];portConstraint=eastwest;" vertex="1" parent="0Yc7JymVGo0VNF-Y9l-0-11">
          <mxGeometry y="631.8823529411765" width="260" height="26" as="geometry" />
        </mxCell>
        <mxCell id="0Yc7JymVGo0VNF-Y9l-0-37" value="+setFlightOrigin(String)" style="text;strokeColor=none;fillColor=none;align=left;verticalAlign=top;spacingLeft=4;spacingRight=4;overflow=hidden;rotatable=0;points=[[0,0.5],[1,0.5]];portConstraint=eastwest;" vertex="1" parent="0Yc7JymVGo0VNF-Y9l-0-11">
          <mxGeometry y="657.8823529411765" width="260" height="26" as="geometry" />
        </mxCell>
        <mxCell id="0Yc7JymVGo0VNF-Y9l-0-38" value="+setFlightDestination(String)" style="text;strokeColor=none;fillColor=none;align=left;verticalAlign=top;spacingLeft=4;spacingRight=4;overflow=hidden;rotatable=0;points=[[0,0.5],[1,0.5]];portConstraint=eastwest;" vertex="1" parent="0Yc7JymVGo0VNF-Y9l-0-11">
          <mxGeometry y="683.8823529411765" width="260" height="26" as="geometry" />
        </mxCell>
        <mxCell id="0Yc7JymVGo0VNF-Y9l-0-39" value="+setAirfare(double)" style="text;strokeColor=none;fillColor=none;align=left;verticalAlign=top;spacingLeft=4;spacingRight=4;overflow=hidden;rotatable=0;points=[[0,0.5],[1,0.5]];portConstraint=eastwest;" vertex="1" parent="0Yc7JymVGo0VNF-Y9l-0-11">
          <mxGeometry y="709.8823529411765" width="260" height="26" as="geometry" />
        </mxCell>
        <mxCell id="0Yc7JymVGo0VNF-Y9l-0-40" value="+setDepartureTime(LocalDateTime)" style="text;strokeColor=none;fillColor=none;align=left;verticalAlign=top;spacingLeft=4;spacingRight=4;overflow=hidden;rotatable=0;points=[[0,0.5],[1,0.5]];portConstraint=eastwest;" vertex="1" parent="0Yc7JymVGo0VNF-Y9l-0-11">
          <mxGeometry y="735.8823529411765" width="260" height="26" as="geometry" />
        </mxCell>
        <mxCell id="0Yc7JymVGo0VNF-Y9l-0-41" value="+setArrivalTime(LocalDateTime)" style="text;strokeColor=none;fillColor=none;align=left;verticalAlign=top;spacingLeft=4;spacingRight=4;overflow=hidden;rotatable=0;points=[[0,0.5],[1,0.5]];portConstraint=eastwest;" vertex="1" parent="0Yc7JymVGo0VNF-Y9l-0-11">
          <mxGeometry y="761.8823529411765" width="260" height="26" as="geometry" />
        </mxCell>
        <mxCell id="0Yc7JymVGo0VNF-Y9l-0-42" value="-setDuration(String)" style="text;strokeColor=none;fillColor=none;align=left;verticalAlign=top;spacingLeft=4;spacingRight=4;overflow=hidden;rotatable=0;points=[[0,0.5],[1,0.5]];portConstraint=eastwest;" vertex="1" parent="0Yc7JymVGo0VNF-Y9l-0-11">
          <mxGeometry y="787.8823529411765" width="260" height="26" as="geometry" />
        </mxCell>
        <mxCell id="0Yc7JymVGo0VNF-Y9l-0-43" value="+setDistance(double)" style="text;strokeColor=none;fillColor=none;align=left;verticalAlign=top;spacingLeft=4;spacingRight=4;overflow=hidden;rotatable=0;points=[[0,0.5],[1,0.5]];portConstraint=eastwest;" vertex="1" parent="0Yc7JymVGo0VNF-Y9l-0-11">
          <mxGeometry y="813.8823529411765" width="260" height="26" as="geometry" />
        </mxCell>
        <mxCell id="0Yc7JymVGo0VNF-Y9l-0-44" value="+setAvailableSeat(int)" style="text;strokeColor=none;fillColor=none;align=left;verticalAlign=top;spacingLeft=4;spacingRight=4;overflow=hidden;rotatable=0;points=[[0,0.5],[1,0.5]];portConstraint=eastwest;" vertex="1" parent="0Yc7JymVGo0VNF-Y9l-0-11">
          <mxGeometry y="839.8823529411765" width="260" height="26" as="geometry" />
        </mxCell>
        <mxCell id="0Yc7JymVGo0VNF-Y9l-0-45" value="+toString() : : String" style="text;strokeColor=none;fillColor=none;align=left;verticalAlign=top;spacingLeft=4;spacingRight=4;overflow=hidden;rotatable=0;points=[[0,0.5],[1,0.5]];portConstraint=eastwest;" vertex="1" parent="0Yc7JymVGo0VNF-Y9l-0-11">
          <mxGeometry y="865.8823529411765" width="260" height="26" as="geometry" />
        </mxCell>
        <mxCell id="0Yc7JymVGo0VNF-Y9l-0-46" value="ValidationUtils" style="swimlane;fontStyle=1;align=center;verticalAlign=top;childLayout=stackLayout;horizontal=1;startSize=32.92307692307692;horizontalStack=0;resizeParent=1;resizeParentMax=0;resizeLast=0;collapsible=0;marginBottom=0;" vertex="1" parent="1">
          <mxGeometry x="881" y="1834" width="451" height="205.9230769230769" as="geometry" />
        </mxCell>
        <mxCell id="0Yc7JymVGo0VNF-Y9l-0-47" style="line;strokeWidth=1;fillColor=none;align=left;verticalAlign=middle;spacingTop=-1;spacingLeft=3;spacingRight=3;rotatable=0;labelPosition=right;points=[];portConstraint=eastwest;strokeColor=inherit;" vertex="1" parent="0Yc7JymVGo0VNF-Y9l-0-46">
          <mxGeometry y="32.92307692307692" width="451" height="8" as="geometry" />
        </mxCell>
        <mxCell id="0Yc7JymVGo0VNF-Y9l-0-48" value="+validateString(String, String) : : String" style="text;strokeColor=none;fillColor=none;align=left;verticalAlign=top;spacingLeft=4;spacingRight=4;overflow=hidden;rotatable=0;points=[[0,0.5],[1,0.5]];portConstraint=eastwest;" vertex="1" parent="0Yc7JymVGo0VNF-Y9l-0-46">
          <mxGeometry y="40.92307692307692" width="451" height="33" as="geometry" />
        </mxCell>
        <mxCell id="0Yc7JymVGo0VNF-Y9l-0-49" value="+validateFlightNumber(String) : : String" style="text;strokeColor=none;fillColor=none;align=left;verticalAlign=top;spacingLeft=4;spacingRight=4;overflow=hidden;rotatable=0;points=[[0,0.5],[1,0.5]];portConstraint=eastwest;" vertex="1" parent="0Yc7JymVGo0VNF-Y9l-0-46">
          <mxGeometry y="73.92307692307692" width="451" height="33" as="geometry" />
        </mxCell>
        <mxCell id="0Yc7JymVGo0VNF-Y9l-0-50" value="+validatePositive(double, String) : : double" style="text;strokeColor=none;fillColor=none;align=left;verticalAlign=top;spacingLeft=4;spacingRight=4;overflow=hidden;rotatable=0;points=[[0,0.5],[1,0.5]];portConstraint=eastwest;" vertex="1" parent="0Yc7JymVGo0VNF-Y9l-0-46">
          <mxGeometry y="106.92307692307692" width="451" height="33" as="geometry" />
        </mxCell>
        <mxCell id="0Yc7JymVGo0VNF-Y9l-0-51" value="+validatePositive(int, String) : : int" style="text;strokeColor=none;fillColor=none;align=left;verticalAlign=top;spacingLeft=4;spacingRight=4;overflow=hidden;rotatable=0;points=[[0,0.5],[1,0.5]];portConstraint=eastwest;" vertex="1" parent="0Yc7JymVGo0VNF-Y9l-0-46">
          <mxGeometry y="139.9230769230769" width="451" height="33" as="geometry" />
        </mxCell>
        <mxCell id="0Yc7JymVGo0VNF-Y9l-0-52" value="+validateTimeLogic(LocalDateTime, LocalDateTime)" style="text;strokeColor=none;fillColor=none;align=left;verticalAlign=top;spacingLeft=4;spacingRight=4;overflow=hidden;rotatable=0;points=[[0,0.5],[1,0.5]];portConstraint=eastwest;" vertex="1" parent="0Yc7JymVGo0VNF-Y9l-0-46">
          <mxGeometry y="172.9230769230769" width="451" height="33" as="geometry" />
        </mxCell>
        <mxCell id="0Yc7JymVGo0VNF-Y9l-0-53" value="Form1" style="swimlane;fontStyle=1;align=center;verticalAlign=top;childLayout=stackLayout;horizontal=1;startSize=28.923076923076923;horizontalStack=0;resizeParent=1;resizeParentMax=0;resizeLast=0;collapsible=0;marginBottom=0;" vertex="1" parent="1">
          <mxGeometry x="60" y="160" width="302" height="384.9230769230769" as="geometry" />
        </mxCell>
        <mxCell id="0Yc7JymVGo0VNF-Y9l-0-54" value="-FlightController controller" style="text;strokeColor=none;fillColor=none;align=left;verticalAlign=top;spacingLeft=4;spacingRight=4;overflow=hidden;rotatable=0;points=[[0,0.5],[1,0.5]];portConstraint=eastwest;" vertex="1" parent="0Yc7JymVGo0VNF-Y9l-0-53">
          <mxGeometry y="28.923076923076923" width="302" height="29" as="geometry" />
        </mxCell>
        <mxCell id="0Yc7JymVGo0VNF-Y9l-0-55" value="-JTable flightTable" style="text;strokeColor=none;fillColor=none;align=left;verticalAlign=top;spacingLeft=4;spacingRight=4;overflow=hidden;rotatable=0;points=[[0,0.5],[1,0.5]];portConstraint=eastwest;" vertex="1" parent="0Yc7JymVGo0VNF-Y9l-0-53">
          <mxGeometry y="57.92307692307692" width="302" height="29" as="geometry" />
        </mxCell>
        <mxCell id="0Yc7JymVGo0VNF-Y9l-0-56" value="-DefaultTableModel tableModel" style="text;strokeColor=none;fillColor=none;align=left;verticalAlign=top;spacingLeft=4;spacingRight=4;overflow=hidden;rotatable=0;points=[[0,0.5],[1,0.5]];portConstraint=eastwest;" vertex="1" parent="0Yc7JymVGo0VNF-Y9l-0-53">
          <mxGeometry y="86.92307692307692" width="302" height="29" as="geometry" />
        </mxCell>
        <mxCell id="0Yc7JymVGo0VNF-Y9l-0-57" value="-JButton displayButton" style="text;strokeColor=none;fillColor=none;align=left;verticalAlign=top;spacingLeft=4;spacingRight=4;overflow=hidden;rotatable=0;points=[[0,0.5],[1,0.5]];portConstraint=eastwest;" vertex="1" parent="0Yc7JymVGo0VNF-Y9l-0-53">
          <mxGeometry y="115.92307692307692" width="302" height="29" as="geometry" />
        </mxCell>
        <mxCell id="0Yc7JymVGo0VNF-Y9l-0-58" value="-JComboBox&lt;String&gt; sortComboBox" style="text;strokeColor=none;fillColor=none;align=left;verticalAlign=top;spacingLeft=4;spacingRight=4;overflow=hidden;rotatable=0;points=[[0,0.5],[1,0.5]];portConstraint=eastwest;" vertex="1" parent="0Yc7JymVGo0VNF-Y9l-0-53">
          <mxGeometry y="144.9230769230769" width="302" height="29" as="geometry" />
        </mxCell>
        <mxCell id="0Yc7JymVGo0VNF-Y9l-0-59" value="-JTextField fromField" style="text;strokeColor=none;fillColor=none;align=left;verticalAlign=top;spacingLeft=4;spacingRight=4;overflow=hidden;rotatable=0;points=[[0,0.5],[1,0.5]];portConstraint=eastwest;" vertex="1" parent="0Yc7JymVGo0VNF-Y9l-0-53">
          <mxGeometry y="173.9230769230769" width="302" height="29" as="geometry" />
        </mxCell>
        <mxCell id="0Yc7JymVGo0VNF-Y9l-0-60" value="-JTextField toField" style="text;strokeColor=none;fillColor=none;align=left;verticalAlign=top;spacingLeft=4;spacingRight=4;overflow=hidden;rotatable=0;points=[[0,0.5],[1,0.5]];portConstraint=eastwest;" vertex="1" parent="0Yc7JymVGo0VNF-Y9l-0-53">
          <mxGeometry y="202.9230769230769" width="302" height="29" as="geometry" />
        </mxCell>
        <mxCell id="0Yc7JymVGo0VNF-Y9l-0-61" style="line;strokeWidth=1;fillColor=none;align=left;verticalAlign=middle;spacingTop=-1;spacingLeft=3;spacingRight=3;rotatable=0;labelPosition=right;points=[];portConstraint=eastwest;strokeColor=inherit;" vertex="1" parent="0Yc7JymVGo0VNF-Y9l-0-53">
          <mxGeometry y="231.9230769230769" width="302" height="8" as="geometry" />
        </mxCell>
        <mxCell id="0Yc7JymVGo0VNF-Y9l-0-62" value="+Form1(FlightController controller)" style="text;strokeColor=none;fillColor=none;align=left;verticalAlign=top;spacingLeft=4;spacingRight=4;overflow=hidden;rotatable=0;points=[[0,0.5],[1,0.5]];portConstraint=eastwest;" vertex="1" parent="0Yc7JymVGo0VNF-Y9l-0-53">
          <mxGeometry y="239.9230769230769" width="302" height="29" as="geometry" />
        </mxCell>
        <mxCell id="0Yc7JymVGo0VNF-Y9l-0-63" value="-initComponents()" style="text;strokeColor=none;fillColor=none;align=left;verticalAlign=top;spacingLeft=4;spacingRight=4;overflow=hidden;rotatable=0;points=[[0,0.5],[1,0.5]];portConstraint=eastwest;" vertex="1" parent="0Yc7JymVGo0VNF-Y9l-0-53">
          <mxGeometry y="268.9230769230769" width="302" height="29" as="geometry" />
        </mxCell>
        <mxCell id="0Yc7JymVGo0VNF-Y9l-0-64" value="-addEventListeners()" style="text;strokeColor=none;fillColor=none;align=left;verticalAlign=top;spacingLeft=4;spacingRight=4;overflow=hidden;rotatable=0;points=[[0,0.5],[1,0.5]];portConstraint=eastwest;" vertex="1" parent="0Yc7JymVGo0VNF-Y9l-0-53">
          <mxGeometry y="297.9230769230769" width="302" height="29" as="geometry" />
        </mxCell>
        <mxCell id="0Yc7JymVGo0VNF-Y9l-0-65" value="-updateTableData()" style="text;strokeColor=none;fillColor=none;align=left;verticalAlign=top;spacingLeft=4;spacingRight=4;overflow=hidden;rotatable=0;points=[[0,0.5],[1,0.5]];portConstraint=eastwest;" vertex="1" parent="0Yc7JymVGo0VNF-Y9l-0-53">
          <mxGeometry y="326.9230769230769" width="302" height="29" as="geometry" />
        </mxCell>
        <mxCell id="0Yc7JymVGo0VNF-Y9l-0-66" value="-populateTable(List&lt;Flight&gt;)" style="text;strokeColor=none;fillColor=none;align=left;verticalAlign=top;spacingLeft=4;spacingRight=4;overflow=hidden;rotatable=0;points=[[0,0.5],[1,0.5]];portConstraint=eastwest;" vertex="1" parent="0Yc7JymVGo0VNF-Y9l-0-53">
          <mxGeometry y="355.9230769230769" width="302" height="29" as="geometry" />
        </mxCell>
        <mxCell id="0Yc7JymVGo0VNF-Y9l-0-67" value="FlightTest" style="swimlane;fontStyle=1;align=center;verticalAlign=top;childLayout=stackLayout;horizontal=1;startSize=33.142857142857146;horizontalStack=0;resizeParent=1;resizeParentMax=0;resizeLast=0;collapsible=0;marginBottom=0;" vertex="1" parent="1">
          <mxGeometry x="404" y="160" width="356" height="239.14285714285714" as="geometry" />
        </mxCell>
        <mxCell id="0Yc7JymVGo0VNF-Y9l-0-68" value="-Scanner scanner" style="text;strokeColor=none;fillColor=none;align=left;verticalAlign=top;spacingLeft=4;spacingRight=4;overflow=hidden;rotatable=0;points=[[0,0.5],[1,0.5]];portConstraint=eastwest;" vertex="1" parent="0Yc7JymVGo0VNF-Y9l-0-67">
          <mxGeometry y="33.142857142857146" width="356" height="33" as="geometry" />
        </mxCell>
        <mxCell id="0Yc7JymVGo0VNF-Y9l-0-69" value="-DateTimeFormatter formatter" style="text;strokeColor=none;fillColor=none;align=left;verticalAlign=top;spacingLeft=4;spacingRight=4;overflow=hidden;rotatable=0;points=[[0,0.5],[1,0.5]];portConstraint=eastwest;" vertex="1" parent="0Yc7JymVGo0VNF-Y9l-0-67">
          <mxGeometry y="66.14285714285714" width="356" height="33" as="geometry" />
        </mxCell>
        <mxCell id="0Yc7JymVGo0VNF-Y9l-0-70" style="line;strokeWidth=1;fillColor=none;align=left;verticalAlign=middle;spacingTop=-1;spacingLeft=3;spacingRight=3;rotatable=0;labelPosition=right;points=[];portConstraint=eastwest;strokeColor=inherit;" vertex="1" parent="0Yc7JymVGo0VNF-Y9l-0-67">
          <mxGeometry y="99.14285714285714" width="356" height="8" as="geometry" />
        </mxCell>
        <mxCell id="0Yc7JymVGo0VNF-Y9l-0-71" value="+consoleApp(FlightController controller)" style="text;strokeColor=none;fillColor=none;align=left;verticalAlign=top;spacingLeft=4;spacingRight=4;overflow=hidden;rotatable=0;points=[[0,0.5],[1,0.5]];portConstraint=eastwest;" vertex="1" parent="0Yc7JymVGo0VNF-Y9l-0-67">
          <mxGeometry y="107.14285714285714" width="356" height="33" as="geometry" />
        </mxCell>
        <mxCell id="0Yc7JymVGo0VNF-Y9l-0-72" value="+sortingMenu(FlightController controller)" style="text;strokeColor=none;fillColor=none;align=left;verticalAlign=top;spacingLeft=4;spacingRight=4;overflow=hidden;rotatable=0;points=[[0,0.5],[1,0.5]];portConstraint=eastwest;" vertex="1" parent="0Yc7JymVGo0VNF-Y9l-0-67">
          <mxGeometry y="140.14285714285714" width="356" height="33" as="geometry" />
        </mxCell>
        <mxCell id="0Yc7JymVGo0VNF-Y9l-0-73" value="+flightMenu(FlightController controller)" style="text;strokeColor=none;fillColor=none;align=left;verticalAlign=top;spacingLeft=4;spacingRight=4;overflow=hidden;rotatable=0;points=[[0,0.5],[1,0.5]];portConstraint=eastwest;" vertex="1" parent="0Yc7JymVGo0VNF-Y9l-0-67">
          <mxGeometry y="173.14285714285714" width="356" height="33" as="geometry" />
        </mxCell>
        <mxCell id="0Yc7JymVGo0VNF-Y9l-0-74" value="-displayFlights(List&lt;Flight&gt;)" style="text;strokeColor=none;fillColor=none;align=left;verticalAlign=top;spacingLeft=4;spacingRight=4;overflow=hidden;rotatable=0;points=[[0,0.5],[1,0.5]];portConstraint=eastwest;" vertex="1" parent="0Yc7JymVGo0VNF-Y9l-0-67">
          <mxGeometry y="206.14285714285714" width="356" height="33" as="geometry" />
        </mxCell>
        <mxCell id="0Yc7JymVGo0VNF-Y9l-0-89" style="edgeStyle=orthogonalEdgeStyle;rounded=0;orthogonalLoop=1;jettySize=auto;html=1;" edge="1" parent="1" source="0Yc7JymVGo0VNF-Y9l-0-75">
          <mxGeometry relative="1" as="geometry">
            <mxPoint x="200" y="554" as="targetPoint" />
          </mxGeometry>
        </mxCell>
        <mxCell id="0Yc7JymVGo0VNF-Y9l-0-75" value="JFrame" style="swimlane;fontStyle=1;align=center;verticalAlign=top;childLayout=stackLayout;horizontal=1;startSize=38;horizontalStack=0;resizeParent=1;resizeParentMax=0;resizeLast=0;collapsible=0;marginBottom=0;" vertex="1" parent="1">
          <mxGeometry x="160" y="684" width="80" height="57" as="geometry" />
        </mxCell>
        <mxCell id="0Yc7JymVGo0VNF-Y9l-0-76" style="line;strokeWidth=1;fillColor=none;align=left;verticalAlign=middle;spacingTop=-1;spacingLeft=3;spacingRight=3;rotatable=0;labelPosition=right;points=[];portConstraint=eastwest;strokeColor=inherit;" vertex="1" parent="0Yc7JymVGo0VNF-Y9l-0-75">
          <mxGeometry y="38" width="80" height="19" as="geometry" />
        </mxCell>
        <mxCell id="0Yc7JymVGo0VNF-Y9l-0-91" value="get user input" style="text;html=1;align=center;verticalAlign=middle;resizable=0;points=[];autosize=1;strokeColor=none;fillColor=none;" vertex="1" parent="1">
          <mxGeometry x="660" y="92.2" width="100" height="30" as="geometry" />
        </mxCell>
        <mxCell id="0Yc7JymVGo0VNF-Y9l-0-93" style="edgeStyle=orthogonalEdgeStyle;rounded=0;orthogonalLoop=1;jettySize=auto;html=1;entryX=0.856;entryY=0;entryDx=0;entryDy=0;entryPerimeter=0;" edge="1" parent="1" source="0Yc7JymVGo0VNF-Y9l-0-26" target="0Yc7JymVGo0VNF-Y9l-0-4">
          <mxGeometry relative="1" as="geometry" />
        </mxCell>
        <mxCell id="0Yc7JymVGo0VNF-Y9l-0-94" value="use controller to manage data" style="text;html=1;align=center;verticalAlign=middle;resizable=0;points=[];autosize=1;strokeColor=none;fillColor=none;" vertex="1" parent="1">
          <mxGeometry x="1090" y="337.46" width="180" height="30" as="geometry" />
        </mxCell>
        <mxCell id="0Yc7JymVGo0VNF-Y9l-0-95" value="ValidationUtils" style="swimlane;fontStyle=1;align=center;verticalAlign=top;childLayout=stackLayout;horizontal=1;startSize=34.666666666666664;horizontalStack=0;resizeParent=1;resizeParentMax=0;resizeLast=0;collapsible=0;marginBottom=0;" vertex="1" parent="1">
          <mxGeometry x="390" y="570" width="362" height="229.99666666666667" as="geometry" />
        </mxCell>
        <mxCell id="0Yc7JymVGo0VNF-Y9l-0-97" style="line;strokeWidth=1;fillColor=none;align=left;verticalAlign=middle;spacingTop=-1;spacingLeft=3;spacingRight=3;rotatable=0;labelPosition=right;points=[];portConstraint=eastwest;strokeColor=inherit;" vertex="1" parent="0Yc7JymVGo0VNF-Y9l-0-95">
          <mxGeometry y="34.666666666666664" width="362" height="8" as="geometry" />
        </mxCell>
        <mxCell id="0Yc7JymVGo0VNF-Y9l-0-98" value="+validateString(String,String) : : String" style="text;strokeColor=none;fillColor=none;align=left;verticalAlign=top;spacingLeft=4;spacingRight=4;overflow=hidden;rotatable=0;points=[[0,0.5],[1,0.5]];portConstraint=eastwest;" vertex="1" parent="0Yc7JymVGo0VNF-Y9l-0-95">
          <mxGeometry y="42.666666666666664" width="362" height="35" as="geometry" />
        </mxCell>
        <mxCell id="0Yc7JymVGo0VNF-Y9l-0-99" value="+validateFlightNumber(String) : : String" style="text;strokeColor=none;fillColor=none;align=left;verticalAlign=top;spacingLeft=4;spacingRight=4;overflow=hidden;rotatable=0;points=[[0,0.5],[1,0.5]];portConstraint=eastwest;" vertex="1" parent="0Yc7JymVGo0VNF-Y9l-0-95">
          <mxGeometry y="77.66666666666666" width="362" height="35" as="geometry" />
        </mxCell>
        <mxCell id="0Yc7JymVGo0VNF-Y9l-0-100" value="+validatePositive(double, String) : : Double" style="text;strokeColor=none;fillColor=none;align=left;verticalAlign=top;spacingLeft=4;spacingRight=4;overflow=hidden;rotatable=0;points=[[0,0.5],[1,0.5]];portConstraint=eastwest;" vertex="1" parent="0Yc7JymVGo0VNF-Y9l-0-95">
          <mxGeometry y="112.66666666666666" width="362" height="35" as="geometry" />
        </mxCell>
        <mxCell id="0Yc7JymVGo0VNF-Y9l-0-101" value="+validatePositive(int, String) : : int&#xa;&#xa;+validateTimeLogic(LocalDateTime, LocalDateTime) : : void" style="text;strokeColor=none;fillColor=none;align=left;verticalAlign=top;spacingLeft=4;spacingRight=4;overflow=hidden;rotatable=0;points=[[0,0.5],[1,0.5]];portConstraint=eastwest;" vertex="1" parent="0Yc7JymVGo0VNF-Y9l-0-95">
          <mxGeometry y="147.66666666666666" width="362" height="82.33" as="geometry" />
        </mxCell>
      </root>
    </mxGraphModel>
  </diagram>
</mxfile>
